# Blender v2.80 (sub 75) OBJ File: 'barrel.blend'
# www.blender.org
mtllib barrel.mtl
o Sphere
v -0.001145 0.353661 -0.499606
v 0.222714 0.674964 -0.223466
v 0.248855 0.707214 -0.249606
v 0.325496 0.545003 -0.326247
v 0.352409 0.353661 -0.353160
v 0.325496 0.162319 -0.326247
v 0.248855 0.000108 -0.249606
v 0.220442 0.021403 -0.221194
v 0.315440 0.674964 0.000393
v 0.352409 0.707214 0.000393
v 0.460795 0.545003 0.000393
v 0.498855 0.353661 0.000393
v 0.460795 0.162319 0.000393
v 0.352409 0.000108 0.000393
v 0.312227 0.021403 0.000393
v 0.222714 0.674964 0.224252
v 0.248855 0.707214 0.250393
v 0.325496 0.545003 0.327034
v 0.352409 0.353661 0.353947
v 0.325496 0.162319 0.327034
v 0.248855 0.000108 0.250393
v 0.220442 0.021403 0.221981
v -0.001145 0.674964 0.316978
v -0.001145 0.707214 0.353947
v -0.001145 0.545003 0.462333
v -0.001145 0.353661 0.500393
v -0.001145 0.162319 0.462333
v -0.001145 0.000108 0.353947
v -0.001145 0.021403 0.313765
v -0.225004 0.674964 0.224252
v -0.251145 0.707214 0.250393
v -0.327785 0.545003 0.327034
v -0.354698 0.353661 0.353947
v -0.327785 0.162319 0.327034
v -0.251145 0.000108 0.250393
v -0.222732 0.021403 0.221981
v -0.317729 0.674964 0.000393
v -0.354698 0.707214 0.000393
v -0.463084 0.545003 0.000394
v -0.501144 0.353661 0.000393
v -0.463084 0.162319 0.000394
v -0.354698 0.000108 0.000393
v -0.314516 0.021403 0.000393
v -0.225004 0.674964 -0.223466
v -0.251145 0.707214 -0.249606
v -0.327785 0.545003 -0.326247
v -0.354698 0.353661 -0.353160
v -0.327785 0.162319 -0.326247
v -0.251145 0.000108 -0.249606
v -0.222732 0.021403 -0.221194
v -0.001145 0.674964 -0.316191
v -0.001145 0.707214 -0.353160
v -0.001145 0.545003 -0.461546
v -0.001145 0.162319 -0.461546
v -0.001145 0.000108 -0.353160
v -0.001145 0.021403 -0.312978
vt 0.576560 0.353986
vt 0.573978 0.353313
vt 0.585586 0.346015
vt 0.586654 0.347620
vt 0.599078 0.321514
vt 0.599389 0.330244
vt 0.587222 0.329970
vt 0.587710 0.321750
vt 0.598900 0.338465
vt 0.597484 0.346522
vt 0.589181 0.346237
vt 0.587738 0.338188
vt 0.585837 0.368529
vt 0.611602 0.353631
vt 0.600930 0.368529
vt 0.597635 0.313772
vt 0.589332 0.313488
vt 0.573147 0.363721
vt 0.575216 0.362285
vt 0.586530 0.369421
vt 0.585280 0.371222
vt 0.611602 0.362358
vt 0.597635 0.313772
vt 0.599078 0.321514
vt 0.587710 0.321750
vt 0.589332 0.313488
vt 0.599389 0.330244
vt 0.598900 0.338465
vt 0.587738 0.338188
vt 0.587222 0.329970
vt 0.601295 0.369334
vt 0.602491 0.371154
vt 0.602152 0.345991
vt 0.601056 0.347590
vt 0.597484 0.346522
vt 0.589181 0.346237
vt 0.599389 0.330244
vt 0.598900 0.338465
vt 0.587738 0.338188
vt 0.587222 0.329970
vt 0.611700 0.362806
vt 0.614633 0.363579
vt 0.613853 0.353229
vt 0.611248 0.353883
vt 0.599078 0.321514
vt 0.587710 0.321750
vt 0.597484 0.346522
vt 0.589181 0.346237
vt 0.611753 0.353641
vt 0.611753 0.362739
vt 0.601264 0.347183
vt 0.597635 0.313772
vt 0.589332 0.313488
vt 0.613853 0.363467
vt 0.611261 0.362797
vt 0.599078 0.321514
vt 0.599389 0.330244
vt 0.587222 0.329970
vt 0.587710 0.321750
vt 0.598900 0.338465
vt 0.597484 0.346522
vt 0.589181 0.346237
vt 0.587738 0.338188
vt 0.575165 0.362358
vt 0.585837 0.347461
vt 0.600930 0.347461
vt 0.597635 0.313772
vt 0.589332 0.313488
vt 0.611668 0.353649
vt 0.614633 0.352924
vt 0.598900 0.338465
vt 0.597484 0.346522
vt 0.589181 0.346237
vt 0.587738 0.338188
vt 0.575165 0.353631
vt 0.586500 0.347251
vt 0.597635 0.313772
vt 0.599078 0.321514
vt 0.587710 0.321750
vt 0.589332 0.313488
vt 0.599389 0.330244
vt 0.587222 0.329970
vt 0.601224 0.347205
vt 0.602485 0.345399
vt 0.602155 0.370727
vt 0.601087 0.369126
vt 0.586581 0.369454
vt 0.597635 0.313772
vt 0.599078 0.321514
vt 0.587710 0.321750
vt 0.589332 0.313488
vt 0.599389 0.330244
vt 0.598900 0.338465
vt 0.587738 0.338188
vt 0.587222 0.329970
vt 0.585315 0.345457
vt 0.585585 0.370763
vt 0.586669 0.369169
vt 0.597484 0.346522
vt 0.589181 0.346237
vt 0.575176 0.353727
vt 0.573405 0.353119
vt 0.573870 0.363536
vt 0.576474 0.362894
vt 0.599078 0.321514
vt 0.599389 0.330244
vt 0.587222 0.329970
vt 0.587710 0.321750
vt 0.598900 0.338465
vt 0.597484 0.346522
vt 0.589181 0.346237
vt 0.587738 0.338188
vt 0.575234 0.353641
vt 0.597635 0.313772
vt 0.589332 0.313488
vt 0.599078 0.321514
vt 0.599389 0.330244
vt 0.587222 0.329970
vt 0.587710 0.321750
vt 0.598900 0.338465
vt 0.597484 0.346522
vt 0.589181 0.346319
vt 0.587738 0.338188
vt 0.597635 0.313772
vt 0.589332 0.313488
vn -0.1904 -0.8674 0.4597
vn 0.3764 -0.1807 -0.9087
vn 0.3256 0.5253 -0.7862
vn 0.0000 -1.0000 0.0000
vn 0.3256 -0.5253 -0.7862
vn 0.3764 0.1807 -0.9087
vn -0.2627 0.7271 0.6343
vn 0.7862 -0.5253 -0.3256
vn 0.9087 0.1807 -0.3764
vn -0.6343 0.7271 0.2627
vn -0.4597 -0.8674 0.1904
vn 0.9087 -0.1807 -0.3764
vn 0.7862 0.5253 -0.3256
vn 0.9087 0.1807 0.3764
vn -0.6343 0.7271 -0.2627
vn -0.4597 -0.8674 -0.1904
vn 0.9087 -0.1807 0.3764
vn 0.7862 0.5253 0.3256
vn 0.0000 1.0000 0.0000
vn 0.7862 -0.5253 0.3256
vn -0.1904 -0.8674 -0.4597
vn 0.3764 -0.1807 0.9087
vn 0.3256 0.5253 0.7862
vn 0.3256 -0.5253 0.7862
vn 0.3764 0.1807 0.9087
vn -0.2627 0.7271 -0.6343
vn -0.3256 0.5253 0.7862
vn -0.3256 -0.5253 0.7862
vn -0.3764 0.1807 0.9087
vn 0.2627 0.7271 -0.6343
vn 0.1904 -0.8674 -0.4597
vn -0.3764 -0.1807 0.9087
vn -0.7862 -0.5253 0.3256
vn -0.9087 0.1807 0.3764
vn 0.6343 0.7271 -0.2627
vn 0.4597 -0.8674 -0.1904
vn -0.9087 -0.1807 0.3764
vn -0.7862 0.5253 0.3256
vn 0.6343 0.7271 0.2627
vn 0.4597 -0.8674 0.1904
vn -0.9087 -0.1807 -0.3764
vn -0.7862 0.5253 -0.3256
vn -0.7862 -0.5253 -0.3256
vn -0.9087 0.1807 -0.3764
vn 0.1904 -0.8674 0.4597
vn -0.3764 -0.1807 -0.9087
vn -0.3256 0.5253 -0.7862
vn -0.3256 -0.5253 -0.7862
vn -0.3764 0.1807 -0.9087
vn 0.2627 0.7271 0.6343
usemtl Material.001
s off
f 56/1/1 55/2/1 7/3/1 8/4/1
f 54/5/2 1/6/2 5/7/2 6/8/2
f 53/9/3 52/10/3 3/11/3 4/12/3
f 15/13/4 50/14/4 8/15/4
f 55/16/5 54/5/5 6/8/5 7/17/5
f 1/6/6 53/9/6 4/12/6 5/7/6
f 52/18/7 51/19/7 2/20/7 3/21/7
f 8/15/4 50/14/4 56/22/4
f 7/23/8 6/24/8 13/25/8 14/26/8
f 5/27/9 4/28/9 11/29/9 12/30/9
f 3/21/10 2/20/10 9/31/10 10/32/10
f 8/4/11 7/3/11 14/33/11 15/34/11
f 6/24/12 5/27/12 12/30/12 13/25/12
f 4/28/13 3/35/13 10/36/13 11/29/13
f 12/37/14 11/38/14 18/39/14 19/40/14
f 10/32/15 9/31/15 16/41/15 17/42/15
f 15/34/16 14/33/16 21/43/16 22/44/16
f 13/45/17 12/37/17 19/40/17 20/46/17
f 11/38/18 10/47/18 17/48/18 18/39/18
f 23/49/19 16/50/19 30/51/19
f 14/52/20 13/45/20 20/46/20 21/53/20
f 22/44/21 21/43/21 28/54/21 29/55/21
f 20/56/22 19/57/22 26/58/22 27/59/22
f 18/60/23 17/61/23 24/62/23 25/63/23
f 22/64/4 36/65/4 43/66/4
f 30/51/19 16/50/19 9/31/19
f 21/67/24 20/56/24 27/59/24 28/68/24
f 19/57/25 18/60/25 25/63/25 26/58/25
f 17/42/26 16/41/26 23/69/26 24/70/26
f 25/71/27 24/72/27 31/73/27 32/74/27
f 29/75/4 36/65/4 22/64/4
f 30/51/19 9/31/19 37/76/19
f 28/77/28 27/78/28 34/79/28 35/80/28
f 26/81/29 25/71/29 32/74/29 33/82/29
f 24/70/30 23/69/30 30/83/30 31/84/30
f 29/55/31 28/54/31 35/85/31 36/86/31
f 27/78/32 26/81/32 33/82/32 34/79/32
f 37/76/19 9/31/19 2/87/19
f 35/88/33 34/89/33 41/90/33 42/91/33
f 33/92/34 32/93/34 39/94/34 40/95/34
f 31/84/35 30/83/35 37/76/35 38/96/35
f 36/86/36 35/85/36 42/97/36 43/98/36
f 34/89/37 33/92/37 40/95/37 41/90/37
f 32/93/38 31/99/38 38/100/38 39/94/38
f 38/96/39 37/76/39 44/101/39 45/102/39
f 43/98/40 42/97/40 49/103/40 50/104/40
f 41/105/41 40/106/41 47/107/41 48/108/41
f 39/109/42 38/110/42 45/111/42 46/112/42
f 15/13/4 22/64/4 43/66/4
f 37/76/19 2/87/19 44/113/19
f 42/114/43 41/105/43 48/108/43 49/115/43
f 40/106/44 39/109/44 46/112/44 47/107/44
f 50/104/45 49/103/45 55/2/45 56/1/45
f 48/116/46 47/117/46 1/118/46 54/119/46
f 46/120/47 45/121/47 52/122/47 53/123/47
f 15/13/4 43/66/4 50/14/4
f 44/113/19 2/87/19 51/19/19
f 49/124/48 48/116/48 54/119/48 55/125/48
f 47/117/49 46/120/49 53/123/49 1/118/49
f 45/102/50 44/101/50 51/19/50 52/18/50
